<?xml version="1.0" encoding="utf-8"?>
<!-- Generator: Adobe Illustrator 24.3.0, SVG Export Plug-In . SVG Version: 6.00 Build 0)  -->
<svg version="1.1" id="Capa_1" xmlns="http://www.w3.org/2000/svg" xmlns:xlink="http://www.w3.org/1999/xlink" x="0px" y="0px"
	 viewBox="0 0 167.7 167.7" style="enable-background:new 0 0 167.7 167.7;" xml:space="preserve">
<style type="text/css">
	.st0{fill:#FFFFFF;stroke:#000000;stroke-miterlimit:10;}
	.st1{fill:#00FEEE;}
</style>
<ellipse class="st0" cx="89.1" cy="95.5" rx="62.9" ry="72.2"/>
<g>
	<path class="st1" d="M83.8,0.3C37.5,0.3,0,37.9,0,84.2c0,41.5,30.2,75.9,69.8,82.6v-65.1H49.6V78.2h20.2V61c0-20,12.2-31,30.1-31
		c8.6,0,15.9,0.6,18.1,0.9v20.9h-12.4c-9.7,0-11.6,4.6-11.6,11.4v14.9h23.2l-3,23.4H94v65.7c41.5-5,73.6-40.3,73.6-83.2
		C167.7,37.9,130.1,0.3,83.8,0.3z"/>
</g>
</svg>
