<?xml version="1.0" encoding="utf-8"?>
<!-- Generator: Adobe Illustrator 24.3.0, SVG Export Plug-In . SVG Version: 6.00 Build 0)  -->
<svg version="1.1" id="Capa_1" xmlns="http://www.w3.org/2000/svg" xmlns:xlink="http://www.w3.org/1999/xlink" x="0px" y="0px"
	 viewBox="0 0 512 512" style="enable-background:new 0 0 512 512;" xml:space="preserve">
<style type="text/css">
	.st0{fill:#00FEEE;}
	.st1{fill:#FFFFFF;}
</style>
<path class="st0" d="M512,256c0,141.4-114.6,256-256,256S0,397.4,0,256S114.6,0,256,0S512,114.6,512,256z"/>
<g>
	<path class="st1" d="M329.6,433H182.4C125.4,433,79,386.6,79,329.6V182.4C79,125.4,125.4,79,182.4,79h147.3
		c57,0,103.4,46.4,103.4,103.4v147.3C433,386.6,386.6,433,329.6,433z M182.4,109c-40.5,0-73.4,32.9-73.4,73.4v147.3
		c0,40.5,32.9,73.4,73.4,73.4h147.3c40.5,0,73.4-32.9,73.4-73.4V182.4c0-40.5-32.9-73.4-73.4-73.4C329.7,109,182.4,109,182.4,109z"
		/>
	<path class="st1" d="M256,352c-52.9,0-96-43.1-96-96s43.1-96,96-96s96,43.1,96,96S308.9,352,256,352z M256,190
		c-36.4,0-66,29.6-66,66s29.6,66,66,66s66-29.6,66-66S292.4,190,256,190z"/>
	<path class="st1" d="M365.8,159.9c0,7.6-6.1,13.7-13.7,13.7s-13.7-6.1-13.7-13.7s6.1-13.7,13.7-13.7S365.8,152.3,365.8,159.9z"/>
</g>
</svg>
